<?xml version="1.0" standalone="no"?>
<!DOCTYPE svg PUBLIC "-//W3C//DTD SVG 20010904//EN"
 "http://www.w3.org/TR/2001/REC-SVG-20010904/DTD/svg10.dtd">
<svg version="1.0" xmlns="http://www.w3.org/2000/svg"
 width="1200.000000pt" height="600.000000pt" viewBox="0 0 1200.000000 600.000000"
 preserveAspectRatio="xMidYMid meet">

<g transform="translate(0.000000,600.000000) scale(0.100000,-0.100000)"
fill="#000000" stroke="none">
<path d="M5780 5594 c-178 -20 -316 -63 -504 -159 -183 -94 -231 -124 -323
-206 -94 -84 -176 -186 -250 -312 -78 -132 -137 -246 -131 -253 9 -9 121 -24
213 -29 54 -3 85 -1 76 4 -11 7 -9 11 10 21 13 7 28 19 32 26 4 8 13 14 20 14
7 0 6 -4 -3 -10 -8 -5 -11 -10 -7 -10 4 0 18 7 31 15 13 9 28 15 32 14 30 -5
46 2 40 19 -6 16 -5 16 8 -1 12 -16 15 -16 29 -2 17 17 32 20 22 6 -3 -5 -1
-12 5 -16 6 -3 10 4 10 17 1 21 2 22 14 5 13 -17 14 -17 20 0 6 14 9 15 15 4
5 -8 10 -9 12 -3 7 19 309 32 854 36 648 4 1106 -10 1130 -36 7 -8 5 -9 -7 -5
-21 8 -48 -1 -48 -15 0 -6 11 -7 28 -3 25 6 26 5 8 -8 -18 -13 -18 -14 7 -19
15 -3 25 -2 22 1 -2 4 4 7 14 7 12 0 17 -6 13 -18 -2 -10 -8 -18 -13 -18 -5 0
-9 -4 -9 -10 0 -14 41 -12 151 5 111 19 139 29 139 51 0 33 -100 222 -161 304
-71 97 -251 281 -321 328 -26 18 -86 52 -135 76 -296 146 -428 176 -783 181
-124 1 -241 1 -260 -1z m-793 -860 c-3 -3 -12 -4 -19 -1 -8 3 -5 6 6 6 11 1
17 -2 13 -5z m-107 -49 c-14 -17 -30 -20 -30 -6 0 5 8 12 18 14 9 3 19 5 21 6
2 0 -2 -6 -9 -14z m-40 -35 c0 -5 -2 -10 -4 -10 -3 0 -8 5 -11 10 -3 6 -1 10
4 10 6 0 11 -4 11 -10z"/>
<path d="M4955 4689 c-4 -6 -5 -12 -2 -15 2 -3 7 2 10 11 7 17 1 20 -8 4z"/>
<path d="M6435 4030 c3 -5 8 -10 11 -10 2 0 4 5 4 10 0 6 -5 10 -11 10 -5 0
-7 -4 -4 -10z"/>
<path d="M6675 3910 c3 -5 8 -10 11 -10 2 0 4 5 4 10 0 6 -5 10 -11 10 -5 0
-7 -4 -4 -10z"/>
<path d="M6640 3901 c0 -5 5 -13 10 -16 6 -3 10 -2 10 4 0 5 -4 13 -10 16 -5
3 -10 2 -10 -4z"/>
<path d="M6697 3889 c-3 -12 -10 -18 -16 -15 -5 4 -12 2 -16 -4 -3 -6 4 -10
18 -10 18 0 26 6 29 25 6 30 -7 34 -15 4z"/>
<path d="M5838 3863 c7 -3 16 -2 19 1 4 3 -2 6 -13 5 -11 0 -14 -3 -6 -6z"/>
<path d="M6595 3850 c-3 -5 -13 -6 -22 -3 -9 4 -19 -1 -25 -10 -5 -10 -16 -17
-24 -17 -8 0 -12 5 -9 10 4 6 11 8 16 5 5 -4 9 -1 9 4 0 13 -27 9 -58 -8 -20
-11 -26 -10 -39 6 -14 17 -14 17 -10 -4 3 -13 2 -23 -3 -23 -9 0 -7 -71 3 -87
5 -8 3 -13 -3 -13 -6 0 -10 -8 -8 -17 4 -22 38 -23 58 -3 8 9 11 10 6 3 -6
-10 -1 -13 20 -14 16 -1 47 -2 69 -3 l40 -1 3 64 c2 35 0 71 -4 80 -4 9 -6 22
-5 29 2 14 -5 16 -14 2z m-109 -39 c-3 -5 -16 -11 -28 -14 -22 -6 -22 -5 -4 8
22 17 40 20 32 6z m80 -13 c-3 -19 -16 -38 -27 -38 -5 0 -2 11 7 25 18 28 23
31 20 13z m-73 -61 c3 -8 -1 -14 -8 -14 -7 0 -11 6 -8 14 3 7 6 13 8 13 2 0 5
-6 8 -13z"/>
<path d="M6636 3721 c-4 -5 -3 -16 0 -25 3 -9 1 -16 -5 -16 -6 0 -11 -9 -11
-20 0 -17 7 -20 50 -20 l50 0 0 45 0 45 -39 0 c-22 0 -42 -4 -45 -9z"/>
<path d="M5554 3628 c-2 -3 -13 -4 -23 -1 -18 5 -19 -1 -20 -76 0 -74 1 -81
19 -81 11 0 20 6 20 13 0 8 4 7 10 -3 8 -13 10 -12 10 3 0 10 8 17 20 17 16 0
20 7 20 35 0 19 0 38 1 43 1 11 37 22 54 16 10 -4 15 0 15 15 0 16 -6 21 -27
22 -16 0 -43 1 -61 2 -19 1 -36 -1 -38 -5z m19 -97 c-16 -15 -16 -15 -4 2 10
12 11 20 2 30 -6 8 -8 17 -4 21 4 4 11 -3 15 -15 6 -16 4 -27 -9 -38z"/>
<path d="M4620 3597 c0 -32 2 -33 30 -29 32 5 42 22 13 22 -15 0 -16 2 -3 10
13 8 12 10 -2 10 -10 0 -18 5 -18 10 0 6 -4 10 -10 10 -5 0 -10 -15 -10 -33z"/>
<path d="M4633 3543 c9 -2 25 -2 35 0 9 3 1 5 -18 5 -19 0 -27 -2 -17 -5z"/>
<path d="M4780 3480 l0 -50 65 0 65 0 0 50 0 50 -65 0 -65 0 0 -50z m37 -36
c-3 -3 -12 -4 -19 -1 -8 3 -5 6 6 6 11 1 17 -2 13 -5z"/>
<path d="M5722 3509 c2 -9 -11 -14 -42 -15 -25 -1 -51 -3 -58 -3 -7 -1 -12 -9
-10 -18 3 -15 -6 -19 -50 -21 -36 -2 -52 -7 -49 -15 6 -19 275 -17 282 2 3 7
3 16 0 19 -3 3 -5 0 -5 -6 0 -7 -5 -12 -11 -12 -6 0 -9 7 -5 15 3 8 1 15 -4
15 -6 0 -10 4 -10 9 0 17 49 -14 53 -34 3 -14 5 -12 6 8 1 29 -11 38 -53 41
-13 0 -24 5 -23 10 1 5 -4 11 -11 13 -7 3 -11 -1 -10 -8z m-2 -55 c0 -2 -7 -4
-15 -4 -8 0 -15 4 -15 10 0 5 7 7 15 4 8 -4 15 -8 15 -10z m40 -8 c0 -2 -9 -6
-20 -9 -11 -3 -18 -1 -14 4 5 9 34 13 34 5z"/>
<path d="M5830 3316 l0 -105 145 0 145 -1 0 55 0 55 -112 -5 c-62 -2 -120 -2
-128 0 -11 4 -14 17 -12 55 4 45 2 50 -17 50 -20 0 -21 -5 -21 -104z"/>
<path d="M6085 3410 c-3 -5 -2 -10 3 -10 6 0 9 -14 8 -31 -1 -16 1 -32 6 -35
4 -3 8 15 8 40 0 43 -11 59 -25 36z"/>
<path d="M4922 3363 l3 -47 63 -1 c35 0 66 2 70 5 10 7 10 90 1 90 -4 0 -10
-6 -12 -12 -4 -10 -6 -10 -6 0 -1 8 -20 12 -62 12 l-60 0 3 -47z m125 -4 c2
-17 -1 -18 -13 -8 -13 11 -10 20 11 29 1 0 1 -9 2 -21z"/>
<path d="M7331 3368 c-1 -48 -1 -48 32 -48 l32 1 -25 15 c-15 9 -18 13 -6 9
16 -5 17 -3 6 10 -7 8 -16 13 -20 10 -5 -3 -11 7 -13 22 -2 18 -5 10 -6 -19z"/>
<path d="M6432 3370 c0 -14 2 -19 5 -12 2 6 2 18 0 25 -3 6 -5 1 -5 -13z"/>
<path d="M6630 3359 c0 -5 5 -7 10 -4 6 3 10 1 10 -5 0 -6 5 -8 11 -4 8 4 7 9
-2 15 -19 12 -29 11 -29 -2z"/>
<path d="M6435 3300 c-3 -5 -1 -10 4 -10 6 0 11 5 11 10 0 6 -2 10 -4 10 -3 0
-8 -4 -11 -10z"/>
<path d="M6438 3213 c7 -3 16 -2 19 1 4 3 -2 6 -13 5 -11 0 -14 -3 -6 -6z"/>
<path d="M6227 3202 l-97 -3 1 -77 1 -78 36 -2 c19 -2 39 -5 43 -7 4 -3 14 -2
23 1 12 5 16 20 16 60 0 30 5 54 10 54 6 0 10 -4 10 -10 0 -5 5 -10 10 -10 15
0 12 16 -5 34 -19 19 -20 32 0 16 8 -6 19 -9 24 -5 6 3 18 2 27 -3 11 -6 13
-11 5 -16 -6 -4 -11 -2 -11 4 0 6 -4 9 -10 5 -13 -8 -1 -35 16 -35 8 0 14 6
14 13 0 8 4 7 11 -3 9 -13 10 -13 8 0 -3 33 2 40 30 40 17 0 32 4 35 9 8 12
-72 17 -197 13z"/>
<path d="M5490 3191 c0 -6 5 -13 10 -16 6 -3 10 1 10 9 0 9 -4 16 -10 16 -5 0
-10 -4 -10 -9z"/>
<path d="M5335 3139 c-4 -6 -5 -12 -2 -15 2 -3 7 2 10 11 7 17 1 20 -8 4z"/>
<path d="M5397 3136 c-4 -11 -1 -13 10 -9 10 4 14 2 9 -5 -3 -6 -2 -13 4 -17
6 -4 9 4 8 19 -3 28 -22 35 -31 12z"/>
<path d="M5502 3125 c0 -16 2 -22 5 -12 2 9 2 23 0 30 -3 6 -5 -1 -5 -18z"/>
<path d="M6369 3083 c0 -26 -2 -58 -5 -70 -3 -20 0 -23 32 -23 l35 0 -3 68
c-3 65 -4 67 -30 70 -27 3 -28 2 -29 -45z"/>
<path d="M5396 3097 c3 -10 9 -15 12 -12 3 3 0 11 -7 18 -10 9 -11 8 -5 -6z"/>
<path d="M7130 3096 c0 -2 7 -7 16 -10 8 -3 12 -2 9 4 -6 10 -25 14 -25 6z"/>
<path d="M6249 3023 c-1 -5 -1 -11 0 -15 2 -12 -37 -9 -42 2 -3 6 -4 5 -3 -2
2 -8 20 -14 47 -15 38 -2 41 -1 19 8 -20 8 -22 12 -10 19 10 7 11 10 3 10 -7
0 -14 -3 -14 -7z"/>
<path d="M7270 3011 c0 -5 5 -13 10 -16 6 -3 10 -2 10 4 0 5 -4 13 -10 16 -5
3 -10 2 -10 -4z"/>
<path d="M7206 2993 c-4 -5 -15 -8 -24 -9 -44 -3 -52 -5 -52 -13 0 -5 10 -7
22 -3 13 3 19 1 15 -5 -10 -17 31 -23 44 -7 10 12 14 12 25 -3 7 -10 14 -13
14 -7 0 5 -6 16 -12 24 -11 12 -10 12 4 1 9 -7 22 -10 27 -6 7 4 8 -1 4 -12
-5 -15 -2 -14 16 4 11 12 21 24 21 26 0 7 -78 2 -86 -5 -14 -15 -26 -8 -14 7
13 15 9 21 -4 8z"/>
<path d="M6430 2960 c0 -19 20 -27 33 -13 4 3 17 7 30 9 12 1 40 5 62 9 28 5
36 4 25 -4 -8 -5 -18 -7 -24 -4 -5 3 -6 1 -3 -5 8 -11 67 6 67 20 0 4 -43 8
-95 8 -88 0 -95 -1 -95 -20z"/>
<path d="M6640 2945 c0 -19 5 -35 10 -35 6 0 9 5 8 12 -2 6 8 12 22 12 31 1
50 13 50 32 0 10 -12 14 -45 14 -45 0 -45 0 -45 -35z m70 11 c0 -9 -8 -12 -25
-8 -14 2 -25 8 -25 13 0 5 11 9 25 9 14 0 25 -6 25 -14z"/>
<path d="M5120 2923 c0 -8 4 -12 9 -9 5 4 11 1 13 -6 3 -8 6 -6 10 4 5 11 0
18 -13 21 -12 3 -19 0 -19 -10z"/>
<path d="M5487 2933 c-4 -3 -7 -11 -7 -17 0 -6 5 -5 12 2 6 6 9 14 7 17 -3 3
-9 2 -12 -2z"/>
<path d="M5173 2900 c-5 -20 -41 -24 -56 -5 -5 6 -7 4 -4 -5 2 -8 11 -14 21
-12 9 2 16 -2 16 -8 0 -5 -7 -10 -16 -10 -14 0 -14 -2 0 -15 19 -19 30 -19 23
-1 -7 17 18 41 32 32 5 -4 12 -2 16 4 3 5 -1 10 -10 10 -11 0 -15 5 -11 15 3
8 3 15 0 15 -3 0 -8 -9 -11 -20z"/>
<path d="M6685 2910 c3 -5 8 -10 11 -10 2 0 4 5 4 10 0 6 -5 10 -11 10 -5 0
-7 -4 -4 -10z"/>
<path d="M7030 2880 c0 -5 5 -10 11 -10 5 0 7 5 4 10 -3 6 -8 10 -11 10 -2 0
-4 -4 -4 -10z"/>
<path d="M7067 2883 c-3 -5 6 -9 20 -10 19 -1 22 1 12 8 -17 11 -26 11 -32 2z"/>
<path d="M4925 2870 c-3 -5 -1 -10 4 -10 6 0 11 5 11 10 0 6 -2 10 -4 10 -3 0
-8 -4 -11 -10z"/>
<path d="M5224 2871 c-10 -10 -3 -61 8 -61 9 0 9 -3 0 -12 -21 -21 -14 -24 58
-26 l70 -2 0 56 0 55 -66 -3 c-36 -2 -67 -5 -70 -7z"/>
<path d="M7120 2869 c0 -5 5 -7 10 -4 6 3 10 8 10 11 0 2 -4 4 -10 4 -5 0 -10
-5 -10 -11z"/>
<path d="M7160 2860 c0 -11 2 -20 4 -20 2 0 6 9 9 20 3 11 1 20 -4 20 -5 0 -9
-9 -9 -20z"/>
<path d="M7191 2854 c0 -11 3 -14 6 -6 3 7 2 16 -1 19 -3 4 -6 -2 -5 -13z"/>
<path d="M5110 2825 c-8 -9 -8 -15 -2 -15 12 0 26 19 19 26 -2 2 -10 -2 -17
-11z"/>
<path d="M5177 2833 c-4 -3 -7 -11 -7 -17 0 -6 5 -5 12 2 6 6 9 14 7 17 -3 3
-9 2 -12 -2z"/>
<path d="M7113 2828 c3 -9 1 -19 -6 -22 -9 -3 -9 -5 0 -5 7 -1 10 -8 7 -16 -4
-8 -2 -15 4 -15 17 0 19 45 3 60 -13 12 -14 12 -8 -2z"/>
<path d="M5140 2811 c0 -5 5 -13 10 -16 6 -3 10 -2 10 4 0 5 -4 13 -10 16 -5
3 -10 2 -10 -4z"/>
<path d="M5030 2799 c0 -5 5 -7 10 -4 6 3 10 8 10 11 0 2 -4 4 -10 4 -5 0 -10
-5 -10 -11z"/>
<path d="M7032 2790 c0 -14 2 -19 5 -12 2 6 2 18 0 25 -3 6 -5 1 -5 -13z"/>
<path d="M7156 2795 c4 -8 11 -15 16 -15 6 0 5 6 -2 15 -7 8 -14 15 -16 15 -2
0 -1 -7 2 -15z"/>
<path d="M6430 2753 c0 -7 -6 -13 -12 -13 -9 0 -9 -3 -2 -8 17 -11 24 -40 11
-46 -8 -4 -8 -8 -2 -11 7 -3 9 -30 7 -66 l-4 -60 148 3 148 4 1 67 c1 53 -2
67 -12 62 -8 -2 -11 0 -8 5 5 9 -126 17 -160 10 -5 -1 -4 4 3 11 13 14 17 48
5 50 -5 1 -34 2 -65 3 -43 2 -58 -1 -58 -11z m258 -128 c-3 -3 -9 2 -12 12 -6
14 -5 15 5 6 7 -7 10 -15 7 -18z"/>
<path d="M5614 2649 c-3 -6 -1 -15 7 -19 10 -7 10 -11 -1 -24 -18 -22 -5 -32
16 -12 12 12 13 20 5 30 -7 9 -7 16 1 24 9 9 8 12 -4 12 -9 0 -20 -5 -24 -11z"/>
<path d="M6125 1964 c-85 -34 -128 -39 -181 -19 -82 30 -153 30 -272 1 -205
-50 -436 -77 -657 -77 -111 0 -213 5 -230 11 -30 10 -30 10 -2 6 24 -3 27 -1
21 18 -6 18 -5 19 9 8 10 -9 17 -10 22 -2 3 5 1 10 -6 10 -8 0 -7 5 2 17 12
15 12 16 -4 10 -10 -4 -25 -7 -33 -7 -9 0 -13 -4 -10 -9 3 -4 -5 -6 -17 -4
-13 3 -33 -4 -47 -15 l-23 -19 37 -109 c89 -259 145 -337 484 -678 208 -210
278 -274 358 -328 109 -73 144 -91 244 -119 137 -40 290 -34 454 17 99 31 165
63 236 117 67 50 609 595 652 655 37 54 89 165 139 301 39 105 45 136 31 158
-10 16 -100 34 -108 22 -3 -5 -10 -7 -15 -4 -5 3 -6 -1 -3 -9 7 -18 24 -22 24
-6 0 6 4 10 9 10 5 0 7 -10 3 -22 -4 -16 -2 -19 9 -13 11 6 11 5 3 -4 -9 -9
-67 -13 -216 -13 -223 1 -457 28 -660 77 -140 34 -204 39 -253 19z m1200 -72
c-3 -3 -11 0 -18 7 -9 10 -8 11 6 5 10 -3 15 -9 12 -12z"/>
</g>
</svg>
