<?xml version="1.0" standalone="no"?>
<!DOCTYPE svg PUBLIC "-//W3C//DTD SVG 20010904//EN"
 "http://www.w3.org/TR/2001/REC-SVG-20010904/DTD/svg10.dtd">
<svg version="1.0" xmlns="http://www.w3.org/2000/svg"
 width="343.000000pt" height="325.000000pt" viewBox="0 0 343.000000 325.000000"
 preserveAspectRatio="xMidYMid meet">

<g transform="translate(0.000000,325.000000) scale(0.100000,-0.100000)"
fill="#000000" stroke="none">
<path d="M1215 2775 c-14 -13 -25 -33 -25 -44 0 -18 -5 -20 -41 -17 -54 6 -94
-9 -107 -39 -14 -30 -14 -31 59 -182 l59 -122 0 -116 0 -115 -62 0 c-81 0
-119 -22 -136 -77 -18 -60 -16 -463 2 -507 22 -52 50 -66 132 -66 l71 0 11
-39 c7 -21 12 -44 12 -50 0 -7 14 -42 32 -79 38 -81 116 -177 179 -220 l46
-32 -4 -83 c-3 -45 -6 -87 -8 -94 -3 -9 -63 -13 -219 -15 -191 -3 -217 -5
-233 -21 -15 -15 -19 -44 -24 -205 -8 -202 -2 -234 42 -266 21 -14 95 -16 756
-16 515 0 739 3 756 11 47 21 52 47 52 255 0 259 22 238 -259 242 l-214 3 -5
72 c-3 40 -8 81 -11 92 -5 15 0 24 22 37 38 23 92 73 92 86 0 6 -7 17 -15 26
-17 17 -27 13 -116 -50 -24 -17 -69 -41 -100 -53 -52 -20 -70 -22 -211 -19
-153 3 -155 3 -221 37 -105 53 -210 164 -247 261 -7 19 -17 39 -22 45 -4 5 -8
24 -8 42 l0 33 178 0 c175 0 179 0 199 24 11 13 22 29 25 37 3 8 8 -9 12 -38
8 -67 30 -83 108 -83 45 0 59 4 67 18 14 27 -1 43 -46 46 -23 2 -46 7 -52 10
-6 4 -11 32 -11 62 l0 55 61 -3 61 -3 18 -48 c31 -80 21 -77 227 -77 l185 0
-7 -42 c-4 -24 -11 -47 -15 -53 -18 -23 -21 -72 -6 -85 30 -24 44 -8 87 95 5
11 10 34 11 50 3 30 3 30 73 33 141 5 145 16 144 324 -1 128 -4 244 -8 258
-12 42 -65 70 -132 70 l-59 0 0 93 c-1 197 -57 328 -180 418 -89 64 -219 98
-302 79 -47 -12 -53 -11 -111 17 -104 50 -121 53 -336 53 -201 0 -202 0 -226
-25z m460 -65 c3 -5 14 -10 25 -10 57 0 169 -98 208 -182 12 -26 22 -50 22
-52 0 -3 -91 -7 -202 -9 -207 -5 -284 -12 -294 -28 -3 -5 -16 -9 -29 -9 -13 0
-27 -4 -30 -10 -3 -5 -12 -10 -20 -10 -18 0 -87 -47 -98 -66 -12 -22 -25 -8
-19 21 3 17 -9 53 -36 108 -22 45 -46 97 -54 115 -7 17 -16 32 -20 32 -5 0 -8
7 -8 15 0 12 15 15 74 15 82 0 102 12 94 55 l-5 25 193 0 c118 0 195 -4 199
-10z m340 -61 c132 -36 219 -122 263 -260 15 -44 15 -69 2 -69 -5 0 -10 4 -10
10 0 12 -77 63 -120 79 -19 7 -44 17 -55 22 -11 4 -33 10 -49 11 -26 3 -32 10
-51 64 -12 34 -36 82 -54 108 l-32 46 33 0 c18 0 51 -5 73 -11z m-2 -279 c125
-32 150 -43 200 -89 26 -24 35 -40 65 -113 l12 -28 -60 0 c-48 0 -64 -4 -82
-22 -18 -18 -31 -21 -77 -19 -39 2 -62 8 -77 22 -19 18 -39 19 -382 19 l-362
0 0 25 c0 29 36 90 71 121 36 32 109 67 164 79 92 21 452 24 528 5z m-923
-554 c0 -149 -4 -247 -10 -251 -5 -3 -19 -1 -30 5 -19 10 -20 20 -20 244 0
128 3 236 7 239 3 4 17 7 30 7 l23 0 0 -244z m1400 225 c6 -12 10 -104 10
-230 0 -197 -1 -212 -20 -231 -11 -11 -26 -17 -33 -14 -12 4 -14 48 -12 247 1
133 3 243 4 245 6 10 42 -2 51 -17z m-256 -146 c3 -8 3 -22 0 -30 -5 -13 -67
-15 -470 -15 -404 0 -465 2 -470 15 -4 8 -4 22 0 30 5 13 66 15 470 15 403 0
465 -2 470 -15z m-224 -955 c0 -41 -3 -50 -18 -50 -26 0 -62 -28 -62 -49 0
-36 42 -42 297 -41 135 1 250 -3 255 -8 4 -4 7 -82 6 -173 l-3 -164 -725 0
-725 0 0 170 0 170 360 5 c198 3 366 9 373 13 17 11 15 37 -5 59 -14 15 -33
18 -136 18 -104 0 -118 2 -113 16 3 9 6 31 6 50 l0 34 245 0 245 0 0 -50z"/>
<path d="M700 2104 c-40 -37 -70 -82 -98 -154 -17 -43 -22 -227 -6 -261 36
-82 59 -119 94 -157 40 -45 64 -51 83 -21 8 13 2 26 -30 63 -69 78 -87 126
-87 236 -1 85 2 101 27 150 16 31 44 72 63 92 39 42 41 49 15 72 -18 17 -21
16 -61 -20z"/>
<path d="M2762 2128 c-20 -20 -14 -37 33 -97 25 -31 45 -64 45 -72 0 -8 4 -19
9 -24 4 -6 13 -36 19 -68 19 -97 -12 -201 -85 -287 -37 -42 -39 -66 -10 -84
15 -9 24 -4 60 34 78 84 110 166 109 286 0 84 -13 140 -44 186 -10 14 -18 30
-18 35 -1 12 -66 80 -88 92 -13 7 -22 7 -30 -1z"/>
<path d="M798 1998 c-50 -63 -63 -102 -62 -193 1 -82 11 -111 66 -185 24 -34
43 -43 69 -35 27 9 23 35 -11 77 -78 95 -77 220 2 304 36 38 34 68 -3 72 -21
2 -34 -6 -61 -40z"/>
<path d="M2634 2025 c-4 -9 10 -37 33 -68 48 -64 66 -128 52 -183 -13 -50 -30
-85 -50 -104 -30 -28 -42 -60 -28 -76 6 -8 17 -14 24 -14 24 0 66 42 92 93 24
45 27 64 27 142 0 99 -12 134 -67 193 -33 34 -74 43 -83 17z"/>
<path d="M1560 1365 c-11 -13 -8 -22 17 -53 65 -81 150 -111 243 -87 81 21
162 98 147 139 -10 26 -53 19 -76 -13 -57 -80 -194 -80 -254 1 -23 31 -57 37
-77 13z"/>
</g>
</svg>
